<mxfile host="app.diagrams.net" modified="2022-04-13T16:06:50.304Z" agent="5.0 (Windows NT 10.0; Win64; x64) AppleWebKit/537.36 (KHTML, like Gecko) Chrome/100.0.4896.75 Safari/537.36" etag="FF9KFjTk2f2AltRC-Wxv" version="17.4.3" type="github">
  <diagram id="jdpHpkHv8ZDr7nmcleaT" name="Page-1">
    <mxGraphModel dx="681" dy="769" grid="1" gridSize="10" guides="1" tooltips="1" connect="1" arrows="1" fold="1" page="1" pageScale="1" pageWidth="850" pageHeight="1100" math="0" shadow="0">
      <root>
        <mxCell id="0" />
        <mxCell id="1" parent="0" />
        <mxCell id="4J5oLz570MRq6Rk1tQzr-2" value="&lt;b&gt;&lt;font color=&quot;#330000&quot;&gt;(a)&amp;nbsp;&lt;/font&gt;&lt;font color=&quot;#ff0000&quot;&gt;DESCLEGA&lt;/font&gt;&lt;br&gt;&lt;div style=&quot;text-align: left&quot;&gt;&lt;b&gt;&lt;font color=&quot;#330000&quot;&gt;&amp;nbsp; &amp;nbsp; a descalci ;&lt;/font&gt;&lt;/b&gt;&lt;/div&gt;&lt;div style=&quot;text-align: left&quot;&gt;&lt;b&gt;&lt;font color=&quot;#330000&quot;&gt;&amp;nbsp; &amp;nbsp; a descurca ;&lt;/font&gt;&lt;/b&gt;&lt;/div&gt;&lt;div style=&quot;text-align: left&quot;&gt;&lt;b&gt;&lt;font color=&quot;#330000&quot;&gt;&lt;br&gt;&lt;/font&gt;&lt;/b&gt;&lt;/div&gt;&lt;/b&gt;" style="text;html=1;align=center;verticalAlign=middle;resizable=0;points=[];autosize=1;strokeColor=none;fillColor=none;" vertex="1" parent="1">
          <mxGeometry x="30" y="40" width="100" height="60" as="geometry" />
        </mxCell>
        <mxCell id="SqX0C8FKw9iXkG9hDckD-2" value="&lt;b&gt;(b) &lt;font color=&quot;#ff0000&quot;&gt;VIZERTA&lt;/font&gt;&lt;br&gt;&amp;nbsp; a vizita cu&lt;br&gt;&amp;nbsp; &amp;nbsp; &amp;nbsp; scopul exclusiv&lt;br&gt;&amp;nbsp; &amp;nbsp; &amp;nbsp; &amp;nbsp;al VIZIONARII .&lt;br&gt;&lt;/b&gt;" style="text;html=1;align=center;verticalAlign=middle;resizable=0;points=[];autosize=1;strokeColor=none;fillColor=none;fontColor=#330000;" vertex="1" parent="1">
          <mxGeometry x="10" y="100" width="120" height="60" as="geometry" />
        </mxCell>
        <mxCell id="SqX0C8FKw9iXkG9hDckD-3" value="- - - - - - - - - - - - - - - - - -&lt;br&gt;" style="text;html=1;align=center;verticalAlign=middle;resizable=0;points=[];autosize=1;strokeColor=none;fillColor=none;fontColor=#330000;" vertex="1" parent="1">
          <mxGeometry x="10" y="80" width="140" height="20" as="geometry" />
        </mxCell>
        <mxCell id="SqX0C8FKw9iXkG9hDckD-4" value="&lt;b&gt;CHEILE de&amp;nbsp;&lt;br&gt;VERIFICARE a&amp;nbsp;&lt;br&gt;CALITATII &lt;br&gt;BUNURILOR si&amp;nbsp;&lt;br&gt;PROCESELOR trebuie&lt;br&gt;sa fie &quot;HARTA COMORII&quot;,&lt;br&gt;in custodia BANCII.&lt;br&gt;&lt;br&gt;&lt;/b&gt;" style="text;html=1;align=center;verticalAlign=middle;resizable=0;points=[];autosize=1;strokeColor=none;fillColor=none;fontColor=#330000;" vertex="1" parent="1">
          <mxGeometry x="160" y="50" width="160" height="120" as="geometry" />
        </mxCell>
        <mxCell id="SqX0C8FKw9iXkG9hDckD-5" value="&lt;b&gt;Choice MUST&amp;nbsp;&lt;br&gt;be&amp;nbsp;&lt;br&gt;GROUNDED&lt;br&gt;in COMPUTATIONAL-&lt;br&gt;-COGNITIVE&lt;br&gt;TRACTABILITY&amp;nbsp;&lt;br&gt;&lt;/b&gt;" style="text;html=1;align=center;verticalAlign=middle;resizable=0;points=[];autosize=1;strokeColor=none;fillColor=none;fontColor=#330000;" vertex="1" parent="1">
          <mxGeometry x="445" y="71" width="140" height="90" as="geometry" />
        </mxCell>
        <mxCell id="SqX0C8FKw9iXkG9hDckD-6" value="&lt;b&gt;of the&amp;nbsp;&lt;br&gt;&amp;nbsp; &amp;nbsp; &amp;nbsp; &amp;nbsp; &amp;nbsp; &amp;nbsp; &amp;nbsp; &amp;nbsp; PRINCIPAL-SENTENT&#39;S&lt;br&gt;CONE of&lt;br&gt;ACCESSIBLE&lt;br&gt;&amp;nbsp; SUCCESORAL&lt;br&gt;LINEAGE&lt;br&gt;&amp;nbsp; &amp;nbsp; &amp;nbsp; &amp;nbsp; &amp;nbsp; &amp;nbsp; &amp;nbsp; &amp;nbsp; &amp;nbsp; &amp;nbsp; &amp;nbsp; &amp;nbsp; &amp;nbsp; &amp;nbsp; &amp;nbsp; (in the FUTURE)&lt;br&gt;&lt;/b&gt;" style="text;html=1;align=center;verticalAlign=middle;resizable=0;points=[];autosize=1;strokeColor=none;fillColor=none;fontColor=#330000;" vertex="1" parent="1">
          <mxGeometry x="540" y="65" width="210" height="100" as="geometry" />
        </mxCell>
        <mxCell id="SqX0C8FKw9iXkG9hDckD-7" value="&amp;nbsp;----" style="text;html=1;align=center;verticalAlign=middle;resizable=0;points=[];autosize=1;strokeColor=none;fillColor=none;fontColor=#330000;" vertex="1" parent="1">
          <mxGeometry x="595" y="60" width="30" height="20" as="geometry" />
        </mxCell>
        <mxCell id="SqX0C8FKw9iXkG9hDckD-11" value="&amp;nbsp; &amp;nbsp; &amp;nbsp; &amp;nbsp;----------" style="text;html=1;align=center;verticalAlign=middle;resizable=0;points=[];autosize=1;strokeColor=none;fillColor=none;fontColor=#330000;" vertex="1" parent="1">
          <mxGeometry x="525" y="145" width="80" height="20" as="geometry" />
        </mxCell>
        <mxCell id="SqX0C8FKw9iXkG9hDckD-13" value="" style="endArrow=none;html=1;rounded=0;fontColor=#330000;exitX=0.938;exitY=0.5;exitDx=0;exitDy=0;exitPerimeter=0;" edge="1" parent="1" source="SqX0C8FKw9iXkG9hDckD-11">
          <mxGeometry width="50" height="50" relative="1" as="geometry">
            <mxPoint x="590" y="20" as="sourcePoint" />
            <mxPoint x="600" y="70" as="targetPoint" />
          </mxGeometry>
        </mxCell>
        <mxCell id="SqX0C8FKw9iXkG9hDckD-16" value="" style="ellipse;shape=cloud;whiteSpace=wrap;html=1;labelBackgroundColor=none;fontColor=#330000;strokeColor=#069968;fillColor=none;" vertex="1" parent="1">
          <mxGeometry x="2" y="249" width="190" height="140" as="geometry" />
        </mxCell>
        <mxCell id="SqX0C8FKw9iXkG9hDckD-18" value="&lt;b&gt;REFLEXE&lt;br&gt;POST-ESCHATOLOGICE&lt;br&gt;&lt;/b&gt;" style="text;html=1;align=center;verticalAlign=middle;resizable=0;points=[];autosize=1;strokeColor=none;fillColor=none;fontColor=#069968;" vertex="1" parent="1">
          <mxGeometry x="20" y="280" width="150" height="30" as="geometry" />
        </mxCell>
        <mxCell id="SqX0C8FKw9iXkG9hDckD-22" value="&lt;b style=&quot;font-size: 12px&quot;&gt;l i&amp;nbsp;&lt;/b&gt;" style="text;html=1;align=center;verticalAlign=middle;resizable=0;points=[];autosize=1;strokeColor=none;fillColor=none;fontSize=13;fontColor=#069968;" vertex="1" parent="1">
          <mxGeometry x="84" y="310" width="30" height="20" as="geometry" />
        </mxCell>
        <mxCell id="SqX0C8FKw9iXkG9hDckD-23" value="" style="endArrow=classic;html=1;rounded=0;fontSize=12;fontColor=#069968;exitX=0.297;exitY=0.983;exitDx=0;exitDy=0;exitPerimeter=0;strokeColor=#069968;" edge="1" parent="1" source="SqX0C8FKw9iXkG9hDckD-22">
          <mxGeometry width="50" height="50" relative="1" as="geometry">
            <mxPoint x="80" y="360" as="sourcePoint" />
            <mxPoint x="80" y="350" as="targetPoint" />
          </mxGeometry>
        </mxCell>
        <mxCell id="SqX0C8FKw9iXkG9hDckD-25" value="" style="endArrow=classic;html=1;rounded=0;fontSize=12;fontColor=#069968;strokeColor=#069968;" edge="1" parent="1">
          <mxGeometry width="50" height="50" relative="1" as="geometry">
            <mxPoint x="102" y="330" as="sourcePoint" />
            <mxPoint x="112" y="350" as="targetPoint" />
          </mxGeometry>
        </mxCell>
        <mxCell id="SqX0C8FKw9iXkG9hDckD-26" value="&lt;b&gt;{l}&lt;sub&gt;i&lt;/sub&gt;&lt;br&gt;&lt;/b&gt;" style="text;html=1;align=center;verticalAlign=middle;resizable=0;points=[];autosize=1;strokeColor=none;fillColor=none;fontSize=12;fontColor=#069968;" vertex="1" parent="1">
          <mxGeometry x="65" y="350" width="30" height="20" as="geometry" />
        </mxCell>
        <mxCell id="SqX0C8FKw9iXkG9hDckD-28" value="&lt;b&gt;AXIOMATIC&amp;nbsp;&lt;br&gt;MEMBRANE&lt;br&gt;&lt;/b&gt;" style="text;html=1;align=center;verticalAlign=middle;resizable=0;points=[];autosize=1;strokeColor=none;fillColor=none;fontSize=12;fontColor=#069968;" vertex="1" parent="1">
          <mxGeometry x="55" y="382" width="90" height="30" as="geometry" />
        </mxCell>
        <mxCell id="Ga-Qxc5MbY4bgCEBjE0H-1" value="" style="ellipse;shape=cloud;whiteSpace=wrap;html=1;labelBackgroundColor=none;fontSize=12;fontColor=#069968;strokeColor=#069968;fillColor=none;" vertex="1" parent="1">
          <mxGeometry x="180" y="270" width="160" height="40" as="geometry" />
        </mxCell>
        <mxCell id="Ga-Qxc5MbY4bgCEBjE0H-2" value="&lt;b&gt;Axiom of CHOICE&lt;/b&gt;" style="text;html=1;align=center;verticalAlign=middle;resizable=0;points=[];autosize=1;strokeColor=none;fillColor=none;fontSize=12;fontColor=#069968;" vertex="1" parent="1">
          <mxGeometry x="204" y="280" width="120" height="20" as="geometry" />
        </mxCell>
        <mxCell id="Ga-Qxc5MbY4bgCEBjE0H-3" value="" style="curved=1;endArrow=classic;html=1;rounded=0;fontSize=12;fontColor=#069968;strokeColor=#069968;exitX=0.495;exitY=0.946;exitDx=0;exitDy=0;exitPerimeter=0;" edge="1" parent="1" source="Ga-Qxc5MbY4bgCEBjE0H-1">
          <mxGeometry width="50" height="50" relative="1" as="geometry">
            <mxPoint x="230" y="425" as="sourcePoint" />
            <mxPoint x="270" y="365" as="targetPoint" />
            <Array as="points">
              <mxPoint x="270" y="315" />
              <mxPoint x="270" y="325" />
              <mxPoint x="250" y="345" />
              <mxPoint x="270" y="355" />
            </Array>
          </mxGeometry>
        </mxCell>
        <mxCell id="Ga-Qxc5MbY4bgCEBjE0H-4" value="&lt;b style=&quot;font-size: 8px&quot;&gt;PRESUMES&lt;/b&gt;" style="text;html=1;align=center;verticalAlign=middle;resizable=0;points=[];autosize=1;strokeColor=none;fillColor=none;fontSize=12;fontColor=#069968;" vertex="1" parent="1">
          <mxGeometry x="264" y="315" width="60" height="20" as="geometry" />
        </mxCell>
        <mxCell id="Ga-Qxc5MbY4bgCEBjE0H-5" value="" style="ellipse;whiteSpace=wrap;html=1;labelBackgroundColor=none;fontSize=8;fontColor=#069968;strokeColor=#069968;fillColor=none;" vertex="1" parent="1">
          <mxGeometry x="200" y="365" width="120" height="120" as="geometry" />
        </mxCell>
        <mxCell id="Ga-Qxc5MbY4bgCEBjE0H-7" value="&lt;b&gt;WISHFUL THINKING&lt;br&gt;&lt;br&gt;on the IMMORALITY&lt;br&gt;&lt;br&gt;and the FORMALITY&lt;br&gt;&lt;br&gt;of the OBSERVER&lt;br&gt;&lt;/b&gt;" style="text;html=1;align=center;verticalAlign=middle;resizable=0;points=[];autosize=1;strokeColor=none;fillColor=none;fontSize=8;fontColor=#069968;" vertex="1" parent="1">
          <mxGeometry x="216" y="384" width="90" height="80" as="geometry" />
        </mxCell>
      </root>
    </mxGraphModel>
  </diagram>
</mxfile>
